<svg xmlns="http://www.w3.org/2000/svg" viewBox="0 0 64 64" role="img" aria-labelledby="title"><title id="title">元码象 · R02 开口框架</title><g color="#19242B"><path d="M43 10H18a8 8 0 0 0-8 8v28a8 8 0 0 0 8 8h28a8 8 0 0 0 8-8V24" fill="none" stroke="currentColor" stroke-width="3.5" stroke-linecap="round" stroke-linejoin="round"/><path d="M23 29c0-6 4-10 10-10 7 0 11 5 11 12v8c0 5 3 6 6 3" fill="none" stroke="currentColor" stroke-width="3.5" stroke-linecap="round" stroke-linejoin="round"/><path d="M23 29c-5 0-8 4-8 9s4 9 9 9c4 0 7-2 9-5M23 29c0 5 4 9 9 9" fill="none" stroke="currentColor" stroke-width="3.5" stroke-linecap="round" stroke-linejoin="round"/><circle cx="35" cy="28" r="1.8" fill="currentColor"/></g><circle cx="52" cy="12" r="5.5" fill="#19242B"/></svg>
