<svg xmlns="http://www.w3.org/2000/svg" viewBox="0 0 260 64" role="img" aria-labelledby="title"><title id="title">溯源狸 · R01 圆润构件中文横版</title><circle cx="32" cy="32" r="26" fill="#F1E5E1"/><g transform="translate(4.8 4.8) scale(.85)" color="#A75D44"><path d="M21 29l-3-7 8 3a17 17 0 0 1 12 0l8-3-3 7c3 3 4 6 4 10 0 7-7 12-15 12s-15-5-15-12c0-4 1-7 4-10Z" fill="none" stroke="currentColor" stroke-width="3.5" stroke-linecap="round" stroke-linejoin="round"/><path d="M22 35c6-5 14-5 20 0-2 7-18 7-20 0Z" fill="currentColor"/><g fill="#F1E5E1"><circle cx="27" cy="36" r="2"/><circle cx="37" cy="36" r="2"/></g><path d="M29 43h6" fill="none" stroke="currentColor" stroke-width="3.5" stroke-linecap="round" stroke-linejoin="round"/></g><circle cx="51" cy="13" r="4.5" fill="#A75D44"/><text x="78" y="41" fill="#19242B" font-family="-apple-system,BlinkMacSystemFont,'PingFang SC','Noto Sans CJK SC',sans-serif" font-size="28" font-weight="650" letter-spacing="-.5">溯源狸</text></svg>
